<?xml version="1.0" encoding="UTF-8" standalone="no"?>
<!-- Created with Inkscape (http://www.inkscape.org/) -->

<svg
   width="512"
   height="512"
   viewBox="0 0 512 512"
   version="1.1"
   id="svg1"
   inkscape:version="1.4.2 (ebf0e940d0, 2025-05-08)"
   sodipodi:docname="icon-fg.svg"
   xmlns:inkscape="http://www.inkscape.org/namespaces/inkscape"
   xmlns:sodipodi="http://sodipodi.sourceforge.net/DTD/sodipodi-0.dtd"
   xmlns:xlink="http://www.w3.org/1999/xlink"
   xmlns="http://www.w3.org/2000/svg"
   xmlns:svg="http://www.w3.org/2000/svg">
  <sodipodi:namedview
     id="namedview1"
     pagecolor="#ffffff"
     bordercolor="#000000"
     borderopacity="0.25"
     inkscape:showpageshadow="2"
     inkscape:pageopacity="0.0"
     inkscape:pagecheckerboard="0"
     inkscape:deskcolor="#d1d1d1"
     inkscape:document-units="px"
     inkscape:zoom="1.7031268"
     inkscape:cx="279.19236"
     inkscape:cy="273.61439"
     inkscape:window-width="2327"
     inkscape:window-height="1238"
     inkscape:window-x="0"
     inkscape:window-y="0"
     inkscape:window-maximized="1"
     inkscape:current-layer="layer1" />
  <defs
     id="defs1">
    <linearGradient
       id="linearGradient3"
       inkscape:collect="always">
      <stop
         style="stop-color:#bec3e0;stop-opacity:1;"
         offset="0"
         id="stop3" />
      <stop
         style="stop-color:#bec3e0;stop-opacity:0;"
         offset="1"
         id="stop4" />
    </linearGradient>
    <rect
       x="159.31195"
       y="114.7046"
       width="83.297391"
       height="26.400266"
       id="rect3" />
    <linearGradient
       inkscape:collect="always"
       xlink:href="#linearGradient3"
       id="linearGradient4"
       x1="159.78125"
       y1="121.06777"
       x2="192.125"
       y2="121.06777"
       gradientUnits="userSpaceOnUse" />
  </defs>
  <g
     inkscape:label="图层 1"
     inkscape:groupmode="layer"
     id="layer1">
    <g
       id="g2"
       transform="translate(2.2066193,-0.03442383)"
       style="fill:#f5a9b8;fill-opacity:1">
      <circle
         style="fill:#f5a9b8;stroke-width:1.39645;fill-opacity:1"
         id="path1"
         cx="79.246094"
         cy="256"
         r="78" />
      <circle
         style="fill:#f5a9b8;stroke-width:1.39645;fill-opacity:1"
         id="path1-1"
         cx="428.34067"
         cy="256"
         r="78" />
      <rect
         style="fill:#f5a9b8;stroke-width:0.985368;fill-opacity:1"
         id="rect2"
         width="355.01065"
         height="156"
         x="75.314949"
         y="178.06885" />
    </g>
    <text
       xml:space="preserve"
       id="text2"
       style="text-align:start;writing-mode:lr-tb;direction:ltr;white-space:pre;shape-inside:url(#rect3);fill:#ffffff;fill-opacity:1"
       transform="matrix(9.556448,0,0,9.556448,-1361.3532,-900.97782)"><tspan
         x="159.3125"
         y="125.35683"
         id="tspan1">31234</tspan></text>
    <path
       d="m 46.500137,300.86628 q -4.112742,0 -7.041512,-2.92878 -2.928772,-2.92877 -2.928772,-7.04151 v -14.95542 h 99.702837 v 14.95542 q 0,4.11274 -2.92877,7.04151 -2.92878,2.92878 -7.04151,2.92878 z m 0,-14.95543 v 4.98514 h 79.762273 v -4.98514 z m 39.881136,-22.43314 q -4.486628,0 -7.103827,2.49257 -2.6172,2.49257 -9.596399,2.49257 -6.979198,0 -9.471769,-2.49257 -2.492571,-2.49257 -6.979199,-2.49257 -4.486628,0 -7.103828,2.49257 -2.617199,2.49257 -9.596398,2.49257 v -9.97028 q 4.486628,0 7.103827,-2.49257 2.6172,-2.49257 9.596399,-2.49257 6.979199,0 9.47177,2.49257 2.492571,2.49257 6.979198,2.49257 4.486628,0 7.103828,-2.49257 2.617199,-2.49257 9.596398,-2.49257 6.979199,0 9.596398,2.49257 2.6172,2.49257 7.103829,2.49257 4.48662,0 6.97919,-2.49257 2.49257,-2.49257 9.47177,-2.49257 6.9792,0 9.84565,2.49257 2.86647,2.49257 6.85458,2.49257 v 9.97028 q -6.9792,0 -9.34715,-2.49257 -2.36793,-2.49257 -6.85456,-2.49257 -4.48663,0 -7.22846,2.49257 -2.74183,2.49257 -9.72102,2.49257 -6.9792,0 -9.5964,-2.49257 -2.617199,-2.49257 -7.103827,-2.49257 z m -49.85142,-17.448 v -4.98514 q 0,-14.33229 13.522198,-22.12157 13.522197,-7.78928 36.329222,-7.78928 22.807017,0 36.329227,7.78928 13.52219,7.78928 13.52219,22.12157 v 4.98514 z M 86.381273,221.104 q -15.45394,0 -25.860423,3.86348 -10.406485,3.86349 -13.272942,11.09195 H 125.51463 Q 122.64817,228.83097 112.24169,224.96748 101.83521,221.104 86.381273,221.104 Z m 0,64.80685 z m 0,-49.85142 z"
       id="path1-9"
       style="fill:#ffffff;fill-opacity:1;stroke-width:0.124629" />
  </g>
</svg>
