<?xml version="1.0" encoding="UTF-8" standalone="no"?>
<!-- Created with Inkscape (http://www.inkscape.org/) -->

<svg
   width="512"
   height="512"
   viewBox="0 0 512 512"
   version="1.1"
   id="svg1"
   sodipodi:docname="icon-fg-paths.svg"
   inkscape:version="1.4.2 (ebf0e940d0, 2025-05-08)"
   xmlns:inkscape="http://www.inkscape.org/namespaces/inkscape"
   xmlns:sodipodi="http://sodipodi.sourceforge.net/DTD/sodipodi-0.dtd"
   xmlns:xlink="http://www.w3.org/1999/xlink"
   xmlns="http://www.w3.org/2000/svg"
   xmlns:svg="http://www.w3.org/2000/svg">
  <sodipodi:namedview
     id="namedview1"
     pagecolor="#ffffff"
     bordercolor="#000000"
     borderopacity="0.25"
     inkscape:showpageshadow="2"
     inkscape:pageopacity="0.0"
     inkscape:pagecheckerboard="0"
     inkscape:deskcolor="#d1d1d1"
     inkscape:document-units="px"
     inkscape:zoom="0.51176617"
     inkscape:cx="163.16045"
     inkscape:cy="287.24056"
     inkscape:window-width="2327"
     inkscape:window-height="1238"
     inkscape:window-x="0"
     inkscape:window-y="0"
     inkscape:window-maximized="1"
     inkscape:current-layer="layer1" />
  <defs
     id="defs1">
    <linearGradient
       id="linearGradient3"
       inkscape:collect="always">
      <stop
         style="stop-color:#bec3e0;stop-opacity:1;"
         offset="0"
         id="stop3" />
      <stop
         style="stop-color:#bec3e0;stop-opacity:0;"
         offset="1"
         id="stop4" />
    </linearGradient>
    <rect
       x="159.31195"
       y="114.7046"
       width="83.297391"
       height="26.400266"
       id="rect3" />
    <linearGradient
       inkscape:collect="always"
       xlink:href="#linearGradient3"
       id="linearGradient4"
       x1="159.78125"
       y1="121.06777"
       x2="192.125"
       y2="121.06777"
       gradientUnits="userSpaceOnUse" />
  </defs>
  <g
     inkscape:label="图层 1"
     inkscape:groupmode="layer"
     id="layer1">
    <g
       id="g2"
       transform="translate(2.2066193,-0.034425)"
       style="fill:#ffffff;fill-opacity:1">
      <path
         id="path1"
         style="fill:#ffffff;fill-opacity:1;stroke-width:1.39645"
         d="M 157.24609,256 A 78,78 0 0 1 79.246094,334 78,78 0 0 1 1.2460937,256 78,78 0 0 1 79.246094,178 78,78 0 0 1 157.24609,256 Z" />
      <path
         id="path1-1"
         style="fill:#ffffff;fill-opacity:1;stroke-width:1.39645"
         d="m 506.34067,256 a 78,78 0 0 1 -78,78 78,78 0 0 1 -78,-78 78,78 0 0 1 78,-78 78,78 0 0 1 78,78 z" />
      <path
         id="rect2"
         style="fill:#ffffff;fill-opacity:1;stroke-width:0.985368"
         d="M 75.314949,178.06885 H 430.3256 v 156 H 75.314949 Z" />
    </g>
    <path
       d="m 198.34595,254.05057 q 19.49454,2.59927 19.49454,19.0613 0,10.83023 -7.36463,17.32844 -7.36455,6.06495 -21.66055,6.06495 -13.4295,0 -21.2273,-3.89894 v -9.53065 q 9.9638,5.19854 20.79413,5.19854 9.53064,0 14.29592,-3.89885 4.76537,-3.89895 4.76537,-11.69675 0,-6.93138 -5.19853,-10.39706 -4.76537,-3.4657 -15.16244,-3.4657 h -7.36455 v -8.23097 h 7.36455 q 8.66422,0 13.42959,-3.89894 4.76528,-4.33211 4.76528,-11.26349 0,-5.19853 -3.89886,-8.23097 -3.46569,-3.46568 -9.53064,-3.46568 -9.9639,0 -18.62812,6.49812 l -5.19854,-6.93138 q 9.9639,-7.7978 23.82666,-7.7978 11.26348,0 17.32844,5.6318 6.06496,5.19853 6.06496,13.86275 0,15.59559 -16.89528,19.06128 z m 64.5485,41.58827 h -9.53064 v -49.38606 q 0,-10.39708 0.43344,-19.49455 l -14.72918,12.56317 -5.19853,-6.49821 20.79413,-16.46203 h 8.23105 z m 77.11158,0 h -49.38607 v -8.66422 l 19.06129,-20.36097 q 11.69666,-12.56308 14.29592,-18.19487 3.03252,-5.63169 3.03252,-11.69665 0,-6.06496 -3.46568,-9.53065 -3.46569,-3.46568 -9.53065,-3.46568 -8.66422,0 -16.89528,7.36454 l -5.63169,-6.49812 q 10.39706,-9.09748 22.96014,-9.09748 10.39706,0 16.46201,5.6318 6.06496,5.63169 6.06496,15.16234 0,6.93137 -3.89885,13.86275 -3.46568,6.93137 -15.16243,19.92771 l -15.16235,16.02886 v 0.43344 h 37.25616 z m 41.58827,-41.58827 q 19.49445,2.59927 19.49445,19.0613 0,10.83023 -7.36455,17.32844 -7.36463,6.06495 -21.66055,6.06495 -13.42959,0 -21.2274,-3.89894 v -9.53065 q 9.96391,5.19854 20.79414,5.19854 9.53065,0 14.29601,-3.89885 4.76528,-3.89895 4.76528,-11.69675 0,-6.93138 -5.19854,-10.39706 -4.76527,-3.4657 -15.16234,-3.4657 h -7.36463 v -8.23097 h 7.36463 q 8.66422,0 13.4295,-3.89894 4.76537,-4.33211 4.76537,-11.26349 0,-5.19853 -3.89894,-8.23097 -3.46569,-3.46568 -9.53065,-3.46568 -9.96381,0 -18.62803,6.49812 l -5.19853,-6.93138 q 9.96381,-7.7978 23.82656,-7.7978 11.26349,0 17.32844,5.6318 6.06496,5.19853 6.06496,13.86275 0,15.59559 -16.89518,19.06128 z m 84.90937,23.82657 h -11.69675 v 17.7617 h -9.53064 v -17.7617 h -36.38974 v -8.66422 l 35.95658,-53.28493 h 9.9638 v 52.85176 h 11.69675 z m -21.22739,-9.09739 v -19.06128 q 0,-9.53065 0.86596,-23.3934 h -0.43344 q -2.1661,5.63169 -4.76537,9.53063 l -22.52697,32.92405 z"
       id="text2"
       style="white-space:pre;fill:#000000;stroke-width:9.24184;fill-opacity:1"
       aria-label="31234" />
    <path
       d="m 53.167242,303.28973 -7.263747,-7.26375 39.042649,-39.17236 -23.477481,-5.83695 25.682556,-15.95431 -2.205075,-30.35209 23.218056,19.58619 28.01733,-11.41446 -11.28476,28.14703 19.58618,23.08834 -30.3521,-2.07536 -16.08401,25.68254 -5.836949,-23.47747 z m 3.113037,-67.4491 -10.376784,-10.37679 10.376784,-10.37678 10.376784,10.37678 z m 46.046981,25.55283 6.22607,-10.24708 12.06302,0.90798 -7.78259,-9.2094 4.53984,-11.15504 -11.15505,4.53983 -9.20938,-7.65287 0.90796,11.93329 -10.247074,6.35579 11.673884,2.85361 z m 21.40212,41.89627 -10.37678,-10.37678 10.37678,-10.37679 10.37679,10.37679 z M 104.1432,244.92031 Z"
       id="path1-6"
       style="fill:#000000;fill-opacity:1;stroke-width:0.12971" />
  </g>
</svg>
