<?xml version="1.0" encoding="UTF-8" standalone="no"?>
<!-- Created with Inkscape (http://www.inkscape.org/) -->

<svg
   width="512"
   height="512"
   viewBox="0 0 512 512"
   version="1.1"
   id="svg1"
   sodipodi:docname="icon-fg-paths.svg"
   inkscape:version="1.4.2 (ebf0e940d0, 2025-05-08)"
   xmlns:inkscape="http://www.inkscape.org/namespaces/inkscape"
   xmlns:sodipodi="http://sodipodi.sourceforge.net/DTD/sodipodi-0.dtd"
   xmlns:xlink="http://www.w3.org/1999/xlink"
   xmlns="http://www.w3.org/2000/svg"
   xmlns:svg="http://www.w3.org/2000/svg">
  <sodipodi:namedview
     id="namedview1"
     pagecolor="#ffffff"
     bordercolor="#000000"
     borderopacity="0.25"
     inkscape:showpageshadow="2"
     inkscape:pageopacity="0.0"
     inkscape:pagecheckerboard="0"
     inkscape:deskcolor="#d1d1d1"
     inkscape:document-units="px"
     inkscape:zoom="1.8671933"
     inkscape:cx="222.52651"
     inkscape:cy="262.42597"
     inkscape:window-width="2327"
     inkscape:window-height="1238"
     inkscape:window-x="0"
     inkscape:window-y="0"
     inkscape:window-maximized="1"
     inkscape:current-layer="layer1" />
  <defs
     id="defs1">
    <linearGradient
       id="linearGradient3"
       inkscape:collect="always">
      <stop
         style="stop-color:#bec3e0;stop-opacity:1;"
         offset="0"
         id="stop3" />
      <stop
         style="stop-color:#bec3e0;stop-opacity:0;"
         offset="1"
         id="stop4" />
    </linearGradient>
    <rect
       x="159.31195"
       y="114.7046"
       width="83.297391"
       height="26.400266"
       id="rect3" />
    <linearGradient
       inkscape:collect="always"
       xlink:href="#linearGradient3"
       id="linearGradient4"
       x1="159.78125"
       y1="121.06777"
       x2="192.125"
       y2="121.06777"
       gradientUnits="userSpaceOnUse" />
  </defs>
  <g
     inkscape:label="图层 1"
     inkscape:groupmode="layer"
     id="layer1">
    <g
       id="g2"
       transform="translate(2.2066193,-0.03442383)"
       style="fill:#f5a9b8;fill-opacity:1">
      <path
         id="path1"
         style="stroke-width:1.39645"
         d="M 157.24609,256 A 78,78 0 0 1 79.246094,334 78,78 0 0 1 1.2460937,256 78,78 0 0 1 79.246094,178 78,78 0 0 1 157.24609,256 Z" />
      <path
         id="path1-1"
         style="stroke-width:1.39645"
         d="m 506.34067,256 a 78,78 0 0 1 -78,78 78,78 0 0 1 -78,-78 78,78 0 0 1 78,-78 78,78 0 0 1 78,78 z" />
      <path
         id="rect2"
         style="stroke-width:0.985368"
         d="M 75.314949,178.06885 H 430.3256 v 156 H 75.314949 Z" />
    </g>
    <path
       d="m 163.10937,120.85683 q 2.10938,0.28125 2.10938,2.0625 0,1.17187 -0.79688,1.875 -0.79687,0.65625 -2.34375,0.65625 -1.45312,0 -2.29687,-0.42188 v -1.03125 q 1.07812,0.5625 2.25,0.5625 1.03125,0 1.54687,-0.42187 0.51563,-0.42188 0.51563,-1.26563 0,-0.75 -0.5625,-1.125 -0.51563,-0.375 -1.64063,-0.375 h -0.79687 v -0.89062 h 0.79687 q 0.9375,0 1.45313,-0.42188 0.51562,-0.46875 0.51562,-1.21875 0,-0.5625 -0.42187,-0.89062 -0.375,-0.375 -1.03125,-0.375 -1.07813,0 -2.01563,0.70312 l -0.5625,-0.75 q 1.07813,-0.84375 2.57813,-0.84375 1.21875,0 1.875,0.60938 0.65625,0.5625 0.65625,1.5 0,1.6875 -1.82813,2.0625 z m 6.98438,4.5 h -1.03125 v -5.34375 q 0,-1.125 0.0469,-2.10938 l -1.59375,1.35938 -0.5625,-0.70313 2.25,-1.78125 h 0.89063 z m 8.34375,0 h -5.34375 v -0.9375 l 2.0625,-2.20313 q 1.26562,-1.35937 1.54687,-1.96875 0.32813,-0.60937 0.32813,-1.26562 0,-0.65625 -0.375,-1.03125 -0.375,-0.375 -1.03125,-0.375 -0.9375,0 -1.82813,0.79687 l -0.60937,-0.70312 q 1.125,-0.98438 2.48437,-0.98438 1.125,0 1.78125,0.60938 0.65625,0.60937 0.65625,1.64062 0,0.75 -0.42187,1.5 -0.375,0.75 -1.64063,2.15625 l -1.64062,1.73438 v 0.0469 h 4.03125 z m 4.5,-4.5 q 2.10937,0.28125 2.10937,2.0625 0,1.17187 -0.79687,1.875 -0.79688,0.65625 -2.34375,0.65625 -1.45313,0 -2.29688,-0.42188 v -1.03125 q 1.07813,0.5625 2.25,0.5625 1.03125,0 1.54688,-0.42187 0.51562,-0.42188 0.51562,-1.26563 0,-0.75 -0.5625,-1.125 -0.51562,-0.375 -1.64062,-0.375 h -0.79688 v -0.89062 h 0.79688 q 0.9375,0 1.45312,-0.42188 0.51563,-0.46875 0.51563,-1.21875 0,-0.5625 -0.42188,-0.89062 -0.375,-0.375 -1.03125,-0.375 -1.07812,0 -2.01562,0.70312 l -0.5625,-0.75 q 1.07812,-0.84375 2.57812,-0.84375 1.21875,0 1.875,0.60938 0.65625,0.5625 0.65625,1.5 0,1.6875 -1.82812,2.0625 z m 9.1875,2.57812 h -1.26563 v 1.92188 h -1.03125 v -1.92188 h -3.9375 v -0.9375 l 3.89063,-5.76562 h 1.07812 v 5.71875 h 1.26563 z m -2.29688,-0.98437 v -2.0625 q 0,-1.03125 0.0937,-2.53125 h -0.0469 q -0.23438,0.60937 -0.51563,1.03125 l -2.4375,3.5625 z"
       id="text2"
       style="white-space:pre;fill:#ffffff"
       transform="matrix(9.556448,0,0,9.556448,-1361.3532,-900.97782)"
       aria-label="31234" />
    <path
       d="m 46.500137,300.86628 q -4.112742,0 -7.041512,-2.92878 -2.928772,-2.92877 -2.928772,-7.04151 v -14.95542 h 99.702837 v 14.95542 q 0,4.11274 -2.92877,7.04151 -2.92878,2.92878 -7.04151,2.92878 z m 0,-14.95543 v 4.98514 h 79.762273 v -4.98514 z m 39.881136,-22.43314 q -4.486628,0 -7.103827,2.49257 -2.6172,2.49257 -9.596399,2.49257 -6.979198,0 -9.471769,-2.49257 -2.492571,-2.49257 -6.979199,-2.49257 -4.486628,0 -7.103828,2.49257 -2.617199,2.49257 -9.596398,2.49257 v -9.97028 q 4.486628,0 7.103827,-2.49257 2.6172,-2.49257 9.596399,-2.49257 6.979199,0 9.47177,2.49257 2.492571,2.49257 6.979198,2.49257 4.486628,0 7.103828,-2.49257 2.617199,-2.49257 9.596398,-2.49257 6.979199,0 9.596398,2.49257 2.6172,2.49257 7.103829,2.49257 4.48662,0 6.97919,-2.49257 2.49257,-2.49257 9.47177,-2.49257 6.9792,0 9.84565,2.49257 2.86647,2.49257 6.85458,2.49257 v 9.97028 q -6.9792,0 -9.34715,-2.49257 -2.36793,-2.49257 -6.85456,-2.49257 -4.48663,0 -7.22846,2.49257 -2.74183,2.49257 -9.72102,2.49257 -6.9792,0 -9.5964,-2.49257 -2.617199,-2.49257 -7.103827,-2.49257 z m -49.85142,-17.448 v -4.98514 q 0,-14.33229 13.522198,-22.12157 13.522197,-7.78928 36.329222,-7.78928 22.807017,0 36.329227,7.78928 13.52219,7.78928 13.52219,22.12157 v 4.98514 z M 86.381273,221.104 q -15.45394,0 -25.860423,3.86348 -10.406485,3.86349 -13.272942,11.09195 H 125.51463 Q 122.64817,228.83097 112.24169,224.96748 101.83521,221.104 86.381273,221.104 Z m 0,64.80685 z m 0,-49.85142 z"
       id="path1-9"
       style="fill:#ffffff;fill-opacity:1;stroke-width:0.124629" />
  </g>
</svg>
